<svg xmlns="http://www.w3.org/2000/svg" xmlns:xlink="http://www.w3.org/1999/xlink" width="98" height="30" viewBox="0 0 98 30">
    <defs>
        <path id="sk0xg2ispa" d="M0.646 0.313L12.438 0.313 12.438 12.222 0.646 12.222z"/>
    </defs>
    <g fill="none" fill-rule="evenodd">
        <path fill="#CC2F34" d="M46.84 11.618L43.835 11.618 43.835 7.014 40.286 7.014 40.286 11.618 37.281 11.618 37.281.148 40.286.148 40.286 4.309 43.835 4.309 43.835.148 46.84.148zM55.576 0l-5.175 11.192v.426h2.875l.674-1.442h4.533l.673 1.442h2.875v-.426L56.84 0h-1.265zm.625 4.655l1.33 3.014H54.9l1.3-3.014zM68.286 8.98L72.457 8.98 72.457 11.618 65.33 11.618 65.33.148 68.286.148zM80.011 0l-5.174 11.192v.426h2.875l.674-1.442h4.534l.673 1.442h2.873v-.426L81.276 0h-1.265zm.625 4.655l1.33 3.014h-2.628l1.298-3.014zM89.766.147L89.766 11.618 96.894 11.618 96.894 8.98 92.722 8.98 92.722.147z"/>
        <g>
            <path fill="#CC2F34" d="M40.122 25.203v1.95h2.349c1.182 0 1.166-1.95-.016-1.95h-2.333zm0-4.294v1.853h1.856c1.166 0 1.166-1.853-.016-1.853h-1.84zm4.747 2.885c.937.474 1.379 1.328 1.379 2.343-.017 1.999-1.23 3.621-3.58 3.621H37.28v-11.47h4.91c1.989 0 3.58 1.54 3.58 3.524 0 .687-.344 1.523-.902 1.982z" transform="translate(0 .124)"/>
            <g transform="translate(0 .124) translate(49 17.778)">
                <mask id="zh36qbx4zb" fill="#fff">
                    <use xlink:href="#sk0xg2ispa"/>
                </mask>
                <path fill="#CC2F34" d="M9.434 6.262c0-4.13-5.766-4.13-5.766 0 0 4.162 5.766 4.162 5.766 0m-8.788 0c0-7.931 11.792-7.931 11.792 0 0 7.948-11.792 7.948-11.792 0" mask="url(#zh36qbx4zb)"/>
            </g>
            <path fill="#CC2F34" d="M69.075 26.153L66.874 29.759 63.802 29.759 63.802 29.316 67.515 23.679 64.196 18.73 64.196 18.288 67.202 18.288 69.075 21.27 69.157 21.27 71.079 18.288 74.034 18.288 74.034 18.73 70.717 23.679 74.445 29.316 74.445 29.759 71.357 29.759 69.173 26.153zM0 29.77L29.819 29.77 29.819.023 0 .023z" transform="translate(0 .124)"/>
            <path fill="#FFF" d="M22.372 7.453L22.372 22.344 17.476 22.344 17.476 17.704 12.612 17.704 12.612 22.344 7.447 22.344 7.447 7.453 12.612 7.453 12.612 12.089 17.476 12.089 17.476 7.453z" transform="translate(0 .124)"/>
        </g>
    </g>
</svg>
